<svg width="24" height="25" viewBox="0 0 24 25" fill="none" xmlns="http://www.w3.org/2000/svg">
<g id="UI icon/search/light">
<path id="Union" fill-rule="evenodd" clip-rule="evenodd" d="M18 11.3765C18 15.2425 14.866 18.3765 11 18.3765C7.13401 18.3765 4 15.2425 4 11.3765C4 7.51047 7.13401 4.37646 11 4.37646C14.866 4.37646 18 7.51047 18 11.3765ZM18.0319 16.9942C19.2635 15.4545 20 13.5015 20 11.3765C20 6.4059 15.9706 2.37646 11 2.37646C6.02944 2.37646 2 6.4059 2 11.3765C2 16.347 6.02944 20.3765 11 20.3765C13.125 20.3765 15.078 19.64 16.6177 18.4084L19.2929 21.0836C19.6834 21.4741 20.3166 21.4741 20.7071 21.0836C21.0976 20.693 21.0976 20.0599 20.7071 19.6694L18.0319 16.9942Z" fill="#2C7EFA"/>
</g>
</svg>
