<svg width="50" height="50" viewBox="0 0 50 50" fill="none" xmlns="http://www.w3.org/2000/svg">
<rect width="49.5" height="49.5" rx="10.2857" fill="#2C7EFA"/>
<path fillRule="evenodd" clipRule="evenodd" d="M5.14453 14.5472V16.8795L8.55666 20.2398L11.9687 23.5999H14.2729H16.5769V21.3281V19.0564L13.1034 15.6356L9.62983 12.2148H7.38724H5.14453V14.5472ZM22.5074 15.6372L19.0355 19.0596V21.3297V23.5999H21.3413H23.6469L27.0574 20.2381L30.4679 16.8763V14.5455V12.2148H28.2236H25.9794L22.5074 15.6372ZM32.8855 12.2956C32.8404 12.34 32.8035 13.3623 32.8035 14.5673V16.7583L36.277 20.1792L39.7506 23.5999H42.0546H44.3588V21.3281V19.0564L40.8853 15.6356L37.4117 12.2148H35.1896C33.9674 12.2148 32.9305 12.2512 32.8855 12.2956ZM8.61641 29.3235L5.14453 32.7459V35.016V37.2863H7.45031H9.75596L13.1665 33.9244L16.5769 30.5627V28.2319V25.9012H14.3326H12.0884L8.61641 29.3235ZM19.0355 28.2336V30.5658L22.4476 33.9261L25.8596 37.2863H28.1638H30.4679V35.0145V32.7428L26.9944 29.3219L23.5208 25.9012H21.2782H19.0355V28.2336ZM36.337 29.3841L32.8035 32.867V35.0766V37.2863H35.1707H37.5379L40.9484 33.9244L44.3588 30.5627V28.2319V25.9012H42.1146H39.8703L36.337 29.3841Z" fill="white"/>
</svg>
