<svg width="25" height="25" viewBox="0 0 25 25" fill="none" xmlns="http://www.w3.org/2000/svg">
<g clipPath="url(#clip0_2108_3710)">
<path fillRule="evenodd" clipRule="evenodd" d="M12.5 2C9.87665 2 7.75 4.12665 7.75 6.75C7.75 9.37335 9.87665 11.5 12.5 11.5C15.1234 11.5 17.25 9.37335 17.25 6.75C17.25 4.12665 15.1234 2 12.5 2ZM9.25 6.75C9.25 4.95507 10.7051 3.5 12.5 3.5C14.2949 3.5 15.75 4.95507 15.75 6.75C15.75 8.54493 14.2949 10 12.5 10C10.7051 10 9.25 8.54493 9.25 6.75Z" fill="#616161"/>
<path d="M18.5 4C18.0858 4 17.75 4.33579 17.75 4.75C17.75 5.16421 18.0858 5.5 18.5 5.5C19.8765 5.5 20.75 6.40573 20.75 7.25C20.75 8.09427 19.8765 9 18.5 9C18.0858 9 17.75 9.33579 17.75 9.75C17.75 10.1642 18.0858 10.5 18.5 10.5C20.4372 10.5 22.25 9.16715 22.25 7.25C22.25 5.33285 20.4372 4 18.5 4Z" fill="#616161"/>
<path d="M7.25 4.75C7.25 4.33579 6.91421 4 6.5 4C4.56278 4 2.75 5.33285 2.75 7.25C2.75 9.16715 4.56278 10.5 6.5 10.5C6.91421 10.5 7.25 10.1642 7.25 9.75C7.25 9.33579 6.91421 9 6.5 9C5.12351 9 4.25 8.09427 4.25 7.25C4.25 6.40573 5.12351 5.5 6.5 5.5C6.91421 5.5 7.25 5.16421 7.25 4.75Z" fill="#616161"/>
<path fillRule="evenodd" clipRule="evenodd" d="M12.5 13C10.7157 13 9.06645 13.4808 7.84133 14.2975C6.62146 15.1108 5.75 16.3166 5.75 17.75C5.75 19.1834 6.62146 20.3892 7.84133 21.2025C9.06645 22.0192 10.7157 22.5 12.5 22.5C14.2843 22.5 15.9335 22.0192 17.1587 21.2025C18.3785 20.3892 19.25 19.1834 19.25 17.75C19.25 16.3166 18.3785 15.1108 17.1587 14.2975C15.9335 13.4808 14.2843 13 12.5 13ZM7.25 17.75C7.25 16.9742 7.72169 16.1801 8.67338 15.5456C9.61984 14.9146 10.9706 14.5 12.5 14.5C14.0294 14.5 15.3802 14.9146 16.3266 15.5456C17.2783 16.1801 17.75 16.9742 17.75 17.75C17.75 18.5258 17.2783 19.3199 16.3266 19.9544C15.3802 20.5854 14.0294 21 12.5 21C10.9706 21 9.61984 20.5854 8.67338 19.9544C7.72169 19.3199 7.25 18.5258 7.25 17.75Z" fill="#616161"/>
<path d="M19.7674 14.5893C19.8561 14.1847 20.2561 13.9287 20.6607 14.0174C21.6225 14.2283 22.4893 14.6093 23.1328 15.1359C23.7758 15.662 24.25 16.3852 24.25 17.25C24.25 18.1148 23.7758 18.838 23.1328 19.3641C22.4893 19.8907 21.6225 20.2717 20.6607 20.4826C20.2561 20.5713 19.8561 20.3153 19.7674 19.9107C19.6787 19.5061 19.9347 19.1061 20.3393 19.0174C21.1317 18.8436 21.7649 18.5452 22.1829 18.2032C22.6014 17.8608 22.75 17.5263 22.75 17.25C22.75 16.9737 22.6014 16.6392 22.1829 16.2968C21.7649 15.9548 21.1317 15.6564 20.3393 15.4826C19.9347 15.3939 19.6787 14.9939 19.7674 14.5893Z" fill="#616161"/>
<path d="M4.33935 14.0174C4.74395 13.9287 5.14387 14.1847 5.23259 14.5893C5.32132 14.9939 5.06525 15.3939 4.66065 15.4826C3.86829 15.6564 3.23505 15.9548 2.81712 16.2968C2.39863 16.6392 2.25 16.9737 2.25 17.25C2.25 17.5263 2.39863 17.8608 2.81712 18.2032C3.23505 18.5452 3.86829 18.8436 4.66065 19.0174C5.06525 19.1061 5.32132 19.5061 5.23259 19.9107C5.14387 20.3153 4.74395 20.5713 4.33935 20.4826C3.37746 20.2717 2.5107 19.8907 1.86719 19.3641C1.22425 18.838 0.75 18.1148 0.75 17.25C0.75 16.3852 1.22425 15.662 1.86719 15.1359C2.5107 14.6093 3.37746 14.2283 4.33935 14.0174Z" fill="#616161"/>
</g>
<defs>
<clipPath id="clip0_2108_3710">
<rect width="24" height="24" fill="white" transform="translate(0.5 0.75)"/>
</clipPath>
</defs>
</svg>
