<svg width="25" height="25" viewBox="0 0 25 25" fill="none" xmlns="http://www.w3.org/2000/svg">
<path fill-rule="evenodd" clip-rule="evenodd" d="M9.5 7C7.98122 7 6.75 8.23122 6.75 9.75C6.75 11.2688 7.98122 12.5 9.5 12.5C11.0188 12.5 12.25 11.2688 12.25 9.75C12.25 8.23122 11.0188 7 9.5 7ZM8.25 9.75C8.25 9.05965 8.80965 8.5 9.5 8.5C10.1904 8.5 10.75 9.05965 10.75 9.75C10.75 10.4404 10.1904 11 9.5 11C8.80965 11 8.25 10.4404 8.25 9.75Z" fill="#616161"/>
<path fill-rule="evenodd" clip-rule="evenodd" d="M9.5 13C8.30424 13 7.18461 13.2407 6.33616 13.665C5.53258 14.0668 4.75 14.7606 4.75 15.75L4.74987 15.8125C4.74834 16.3228 4.74576 17.1822 5.56023 17.7718C5.93818 18.0453 6.4369 18.2198 7.05469 18.331C7.6782 18.4432 8.47721 18.5 9.5 18.5C10.5228 18.5 11.3218 18.4432 11.9453 18.331C12.5631 18.2198 13.0618 18.0453 13.4398 17.7718C14.2542 17.1822 14.2517 16.3228 14.2501 15.8125L14.25 15.75C14.25 14.7606 13.4674 14.0668 12.6638 13.665C11.8154 13.2407 10.6958 13 9.5 13ZM6.25 15.75C6.25 15.6348 6.36285 15.3287 7.00698 15.0066C7.60625 14.707 8.48662 14.5 9.5 14.5C10.5134 14.5 11.3937 14.707 11.993 15.0066C12.6371 15.3287 12.75 15.6348 12.75 15.75C12.75 16.3545 12.7115 16.4472 12.5602 16.5567C12.4382 16.645 12.1869 16.7634 11.6797 16.8547C11.1782 16.9449 10.4772 17 9.5 17C8.52279 17 7.8218 16.9449 7.32031 16.8547C6.81311 16.7634 6.56182 16.645 6.43977 16.5567C6.28849 16.4472 6.25 16.3545 6.25 15.75Z" fill="#616161"/>
<path d="M19.5 13.5C19.9142 13.5 20.25 13.1642 20.25 12.75C20.25 12.3358 19.9142 12 19.5 12H15.5C15.0858 12 14.75 12.3358 14.75 12.75C14.75 13.1642 15.0858 13.5 15.5 13.5H19.5Z" fill="#616161"/>
<path d="M20.25 9.75C20.25 10.1642 19.9142 10.5 19.5 10.5H14.5C14.0858 10.5 13.75 10.1642 13.75 9.75C13.75 9.33579 14.0858 9 14.5 9H19.5C19.9142 9 20.25 9.33579 20.25 9.75Z" fill="#616161"/>
<path d="M19.5 16.5C19.9142 16.5 20.25 16.1642 20.25 15.75C20.25 15.3358 19.9142 15 19.5 15H16.5C16.0858 15 15.75 15.3358 15.75 15.75C15.75 16.1642 16.0858 16.5 16.5 16.5H19.5Z" fill="#616161"/>
<path fill-rule="evenodd" clip-rule="evenodd" d="M10.4436 4H14.5564C16.3942 3.99998 17.8498 3.99997 18.989 4.15314C20.1614 4.31076 21.1104 4.64288 21.8588 5.39124C22.6071 6.13961 22.9392 7.08856 23.0969 8.26098C23.25 9.40018 23.25 10.8558 23.25 12.6935V12.8064C23.25 14.6442 23.25 16.0998 23.0969 17.239C22.9392 18.4114 22.6071 19.3604 21.8588 20.1088C21.1104 20.8571 20.1614 21.1892 18.989 21.3469C17.8498 21.5 16.3942 21.5 14.5565 21.5H10.4436C8.60585 21.5 7.15018 21.5 6.01098 21.3469C4.83856 21.1892 3.88961 20.8571 3.14124 20.1088C2.39288 19.3604 2.06076 18.4114 1.90314 17.239C1.74997 16.0998 1.74998 14.6442 1.75 12.8064V12.6936C1.74998 10.8558 1.74997 9.40019 1.90314 8.26098C2.06076 7.08856 2.39288 6.13961 3.14124 5.39124C3.88961 4.64288 4.83856 4.31076 6.01098 4.15314C7.15019 3.99997 8.60583 3.99998 10.4436 4ZM6.21085 5.63976C5.20476 5.77503 4.62511 6.02869 4.2019 6.4519C3.77869 6.87511 3.52503 7.45476 3.38976 8.46085C3.25159 9.48851 3.25 10.8432 3.25 12.75C3.25 14.6568 3.25159 16.0115 3.38976 17.0392C3.52503 18.0452 3.77869 18.6249 4.2019 19.0481C4.62511 19.4713 5.20476 19.725 6.21085 19.8602C7.23851 19.9984 8.59318 20 10.5 20H14.5C16.4068 20 17.7615 19.9984 18.7892 19.8602C19.7952 19.725 20.3749 19.4713 20.7981 19.0481C21.2213 18.6249 21.475 18.0452 21.6102 17.0392C21.7484 16.0115 21.75 14.6568 21.75 12.75C21.75 10.8432 21.7484 9.48851 21.6102 8.46085C21.475 7.45476 21.2213 6.87511 20.7981 6.4519C20.3749 6.02869 19.7952 5.77503 18.7892 5.63976C17.7615 5.50159 16.4068 5.5 14.5 5.5H10.5C8.59318 5.5 7.23851 5.50159 6.21085 5.63976Z" fill="#616161"/>
</svg>
