<svg width="25" height="25" viewBox="0 0 25 25" fill="none" xmlns="http://www.w3.org/2000/svg">
<path d="M12.5 16.5C10.43 16.5 8.75 14.82 8.75 12.75C8.75 10.68 10.43 9 12.5 9C14.57 9 16.25 10.68 16.25 12.75C16.25 14.82 14.57 16.5 12.5 16.5ZM12.5 10.5C11.26 10.5 10.25 11.51 10.25 12.75C10.25 13.99 11.26 15 12.5 15C13.74 15 14.75 13.99 14.75 12.75C14.75 11.51 13.74 10.5 12.5 10.5Z" fill="#616161"/>
<path d="M15.71 22.9403C15.5 22.9403 15.29 22.9103 15.08 22.8603C14.46 22.6903 13.94 22.3003 13.61 21.7503L13.49 21.5503C12.9 20.5303 12.09 20.5303 11.5 21.5503L11.39 21.7403C11.06 22.3003 10.54 22.7003 9.92 22.8603C9.29 23.0303 8.64 22.9403 8.09 22.6103L6.37 21.6203C5.76 21.2703 5.32 20.7003 5.13 20.0103C4.95 19.3203 5.04 18.6103 5.39 18.0003C5.68 17.4903 5.76 17.0303 5.59 16.7403C5.42 16.4503 4.99 16.2803 4.4 16.2803C2.94 16.2803 1.75 15.0903 1.75 13.6303V11.8703C1.75 10.4103 2.94 9.22029 4.4 9.22029C4.99 9.22029 5.42 9.05029 5.59 8.76029C5.76 8.47029 5.69 8.01029 5.39 7.50029C5.04 6.89029 4.95 6.17029 5.13 5.49029C5.31 4.80029 5.75 4.23029 6.37 3.88029L8.1 2.89029C9.23 2.22029 10.72 2.61029 11.4 3.76029L11.52 3.96029C12.11 4.98029 12.92 4.98029 13.51 3.96029L13.62 3.77029C14.3 2.61029 15.79 2.22029 16.93 2.90029L18.65 3.89029C19.26 4.24029 19.7 4.81029 19.89 5.50029C20.07 6.19029 19.98 6.90029 19.63 7.51029C19.34 8.02029 19.26 8.48029 19.43 8.77029C19.6 9.06029 20.03 9.23029 20.62 9.23029C22.08 9.23029 23.27 10.4203 23.27 11.8803V13.6403C23.27 15.1003 22.08 16.2903 20.62 16.2903C20.03 16.2903 19.6 16.4603 19.43 16.7503C19.26 17.0403 19.33 17.5003 19.63 18.0103C19.98 18.6203 20.08 19.3403 19.89 20.0203C19.71 20.7103 19.27 21.2803 18.65 21.6303L16.92 22.6203C16.54 22.8303 16.13 22.9403 15.71 22.9403ZM12.5 19.2403C13.39 19.2403 14.22 19.8003 14.79 20.7903L14.9 20.9803C15.02 21.1903 15.22 21.3403 15.46 21.4003C15.7 21.4603 15.94 21.4303 16.14 21.3103L17.87 20.3103C18.13 20.1603 18.33 19.9103 18.41 19.6103C18.49 19.3103 18.45 19.0003 18.3 18.7403C17.73 17.7603 17.66 16.7503 18.1 15.9803C18.54 15.2103 19.45 14.7703 20.59 14.7703C21.23 14.7703 21.74 14.2603 21.74 13.6203V11.8603C21.74 11.2303 21.23 10.7103 20.59 10.7103C19.45 10.7103 18.54 10.2703 18.1 9.50029C17.66 8.73029 17.73 7.72029 18.3 6.74029C18.45 6.48029 18.49 6.17029 18.41 5.87029C18.33 5.57029 18.14 5.33029 17.88 5.17029L16.15 4.18029C15.72 3.92029 15.15 4.07029 14.89 4.51029L14.78 4.70029C14.21 5.69029 13.38 6.25029 12.49 6.25029C11.6 6.25029 10.77 5.69029 10.2 4.70029L10.09 4.50029C9.84 4.08029 9.28 3.93029 8.85 4.18029L7.12 5.18029C6.86 5.33029 6.66 5.58029 6.58 5.88029C6.5 6.18029 6.54 6.49029 6.69 6.75029C7.26 7.73029 7.33 8.74029 6.89 9.51029C6.45 10.2803 5.54 10.7203 4.4 10.7203C3.76 10.7203 3.25 11.2303 3.25 11.8703V13.6303C3.25 14.2603 3.76 14.7803 4.4 14.7803C5.54 14.7803 6.45 15.2203 6.89 15.9903C7.33 16.7603 7.26 17.7703 6.69 18.7503C6.54 19.0103 6.5 19.3203 6.58 19.6203C6.66 19.9203 6.85 20.1603 7.11 20.3203L8.84 21.3103C9.05 21.4403 9.3 21.4703 9.53 21.4103C9.77 21.3503 9.97 21.1903 10.1 20.9803L10.21 20.7903C10.78 19.8103 11.61 19.2403 12.5 19.2403Z" fill="#616161"/>
</svg>
