<svg width="25" height="25" viewBox="0 0 25 25" fill="none" xmlns="http://www.w3.org/2000/svg">
<path d="M17.8726 8.92276C20.5986 10.1469 22.5 12.9111 22.5 16.125V19.5C22.5 20.7426 21.5051 21.75 20.2778 21.75H13.6111C10.7084 21.75 8.23898 19.8717 7.32379 17.25M17.8726 8.92276C17.1711 5.95566 14.5344 3.75 11.3889 3.75H10.2778C5.98223 3.75 2.5 7.27576 2.5 11.625V15C2.5 16.2426 3.49492 17.25 4.72222 17.25H7.32379M17.8726 8.92276C17.9922 9.42875 18.0556 9.95688 18.0556 10.5C18.0556 14.2279 15.0708 17.25 11.3889 17.25H7.32379" stroke="#616161" stroke-width="1.5" stroke-linejoin="round"/>
</svg>
