<svg width="25" height="25" viewBox="0 0 25 25" fill="none" xmlns="http://www.w3.org/2000/svg">
<path fill-rule="evenodd" clip-rule="evenodd" d="M12.5002 2C10.6724 2 9.16129 2.16099 7.9984 2.35719L7.86355 2.37983C6.85333 2.54893 6.01366 2.68949 5.35712 3.49808C4.93608 4.01664 4.80023 4.57706 4.76891 5.2031L4.27686 5.36712C3.81373 5.52147 3.40781 5.65675 3.08577 5.80656C2.73762 5.96852 2.41857 6.17714 2.17466 6.51555C1.93076 6.85396 1.83375 7.22262 1.7902 7.60411C1.74992 7.95701 1.74996 8.38488 1.75 8.87304L1.75001 9.01827C1.75 9.42008 1.74999 9.77497 1.77965 10.0718C1.8118 10.3935 1.88299 10.7062 2.06083 11.0084C2.23867 11.3107 2.47748 11.5248 2.74307 11.7091C2.98813 11.8792 3.29836 12.0515 3.64962 12.2466L6.29078 13.714C6.83018 14.7752 7.57115 15.7213 8.59017 16.4048C9.47721 16.9997 10.5418 17.3732 11.8028 17.473C11.7687 17.5587 11.75 17.6522 11.75 17.75V19.5H10.3198C9.48562 19.5 8.76739 20.0888 8.60379 20.9068L8.38515 22H6.5C6.08579 22 5.75 22.3358 5.75 22.75C5.75 23.1642 6.08579 23.5 6.5 23.5H18.5C18.9142 23.5 19.25 23.1642 19.25 22.75C19.25 22.3358 18.9142 22 18.5 22H16.6149L16.3962 20.9068C16.2326 20.0888 15.5144 19.5 14.6802 19.5H13.25V17.75C13.25 17.6522 13.2313 17.5587 13.1972 17.473C14.4583 17.3733 15.523 16.9998 16.4101 16.4048C17.4292 15.7213 18.1703 14.775 18.7097 13.7137L21.3503 12.2466C21.7016 12.0515 22.0118 11.8792 22.2569 11.7091C22.5225 11.5248 22.7613 11.3107 22.9391 11.0084C23.117 10.7062 23.1882 10.3935 23.2203 10.0718C23.25 9.77499 23.25 9.42012 23.25 9.01834L23.25 8.87306C23.25 8.38488 23.25 7.95701 23.2098 7.60411C23.1662 7.22262 23.0692 6.85396 22.8253 6.51555C22.5814 6.17714 22.2623 5.96852 21.9142 5.80656C21.5921 5.65675 21.1862 5.52147 20.7231 5.36712L20.2314 5.20322C20.2001 4.57713 20.0643 4.01668 19.6432 3.49808C18.9866 2.68949 18.147 2.54893 17.1368 2.37983L17.0019 2.35719C15.839 2.16099 14.3279 2 12.5002 2ZM15.0852 22L14.9253 21.201C14.902 21.0841 14.7994 21 14.6802 21H10.3198C10.2006 21 10.098 21.0841 10.0747 21.201L9.91486 22H15.0852ZM4.78849 6.77772L4.8021 6.77318C4.87367 8.29348 5.0454 9.97376 5.47298 11.5437L4.40729 10.9516C4.01814 10.7354 3.77447 10.5991 3.59829 10.4768C3.43588 10.3641 3.38298 10.2976 3.35363 10.2477C3.32428 10.1979 3.29187 10.1193 3.27221 9.92263C3.25089 9.70925 3.25002 9.43002 3.25001 8.98484L3.25001 8.91231C3.24999 8.37323 3.25111 8.03191 3.28053 7.77422C3.30775 7.5357 3.35231 7.44703 3.39154 7.3926C3.43077 7.33817 3.5008 7.26786 3.71847 7.1666C3.95362 7.0572 4.27708 6.94819 4.78849 6.77772ZM20.1982 6.7733C20.1266 8.29349 19.9549 9.97364 19.5274 11.5435L20.5927 10.9516C20.9818 10.7354 21.2255 10.5991 21.4017 10.4768C21.5641 10.3641 21.617 10.2976 21.6463 10.2477C21.6757 10.1979 21.7081 10.1193 21.7277 9.92263C21.7491 9.70925 21.7499 9.43002 21.75 8.98484L21.75 8.91231C21.75 8.37323 21.7488 8.03191 21.7194 7.77422C21.6922 7.5357 21.6477 7.44703 21.6084 7.3926C21.5692 7.33817 21.4992 7.26786 21.2815 7.1666C21.0463 7.0572 20.7229 6.94819 20.2115 6.77772L20.1982 6.7733ZM8.24796 3.83629C9.33319 3.65319 10.7608 3.5 12.5002 3.5C14.2395 3.5 15.6671 3.65319 16.7524 3.83629C17.9593 4.03992 18.2128 4.1161 18.4787 4.44358C18.7407 4.76632 18.7656 5.07156 18.7118 6.42672C18.6222 8.68537 18.3242 11.1227 17.4015 12.9764C16.946 13.8914 16.3505 14.6387 15.5746 15.159C14.8037 15.6761 13.8092 16 12.5002 16C11.1911 16 10.1966 15.6761 9.42569 15.159C8.64983 14.6387 8.05432 13.8914 7.59884 12.9764C6.6761 11.1227 6.37815 8.68537 6.28848 6.42672C6.23468 5.07156 6.25956 4.76632 6.52161 4.44358C6.78751 4.1161 7.04104 4.03992 8.24796 3.83629Z" fill="#616161"/>
</svg>
